<svg id="Capa_1" enable-background="new 0 0 512.002 512.002" height="512" viewBox="0 0 512.002 512.002" width="512" xmlns="http://www.w3.org/2000/svg"><g><g><g><path d="m308.949 390.135 17.33 56.866h31.283l-17.771-56.866z" fill="#e2dee2"/><path d="m339.791 390.135h-23.125l17.771 56.866h23.125z" fill="#d0cdd1"/><path d="m455.296 399.787h-112.486l8.197 26.235h99.408c8.228 0 14.891 6.664 14.891 14.891 0 4.109-1.664 7.826-4.359 10.522-2.696 2.696-6.413 4.359-10.532 4.359h-12.907c-7.175 0-12.997 5.822-12.997 12.997 0 3.587 1.453 6.834 3.808 9.189 2.355 2.345 5.602 3.798 9.189 3.798h17.787c21.264 0 38.511-17.236 38.511-38.501v-4.99c.001-21.264-17.246-38.5-38.51-38.5z" fill="#e2dee2"/></g><path d="m375.767 504.5-18.205-57.499h-343.139v36.785h316.179c3.642 0 6.843 2.416 7.841 5.919l4.214 14.795z" fill="#fd4755"/><path d="m357.562 447.001h-23.127l18.205 57.499h23.127z" fill="#ef3349"/><path d="m493.806 438.288v4.99c0 21.265-17.246 38.501-38.511 38.501h-17.787c-3.588 0-6.834-1.453-9.189-3.798-2.355-2.355-3.808-5.602-3.808-9.189 0-7.175 5.822-12.997 12.997-12.997h12.907c4.119 0 7.836-1.663 10.532-4.359s4.359-6.413 4.359-10.522c0-8.227-6.664-14.891-14.891-14.891h-61.639v-26.235h66.52c21.264-.001 38.51 17.235 38.51 38.5z" fill="#aca6d6"/><path d="m455.296 399.787h-18.758c21.265 0 38.511 17.236 38.511 38.501v4.99c0 21.048-16.899 38.138-37.864 38.484.109.003.215.016.324.016h17.787c21.264 0 38.511-17.236 38.511-38.501v-4.99c0-21.264-17.247-38.5-38.511-38.5z" fill="#978ecb"/><path d="m259.786 155.14v162.79l-9.52 1.6-61.54 10.34-174.3 29.3v-130.43l87-47.81c30.77-16.92 65.32-25.79 100.44-25.79z" fill="#dcf5f8"/><path d="m250.266 319.53-61.54 10.34c-7.32-42.31-18.18-105.36-18.18-106.61 0-15.95 11.58-30.03 27.87-32.62 18.31-2.93 35.44 9.77 37.97 28.14l9.23 66.97z" fill="#c0eced"/><path d="m223.578 155.143v162.792l-209.154 35.146v6.084l245.364-41.23v-162.792z" fill="#c0eced"/><path d="m440.545 364.694-26.225 35.094h-152.63c-18.97 0-35.194-13.639-38.451-32.318l-12.727-72.873-11.454-65.618c-.331-1.924-.501-3.838-.501-5.722 0-15.943 11.574-30.023 27.868-32.618 18.308-2.926 35.444 9.77 37.97 28.139l9.229 66.97 6.383 46.357c.782 5.692 5.241 10.171 10.923 10.993z" fill="#ffe5c2"/><path d="m290.931 343.098c-5.682-.822-10.141-5.301-10.923-10.993l-6.383-46.357-9.229-66.97c-2.525-18.368-19.661-31.065-37.97-28.139-3.123.497-6.07 1.42-8.798 2.693 9.802 4.591 17.169 13.895 18.757 25.446l9.229 66.97 6.383 46.357c.782 5.692 5.241 10.171 10.923 10.993l149.614 21.595-26.225 35.094h28.011l26.225-35.094z" fill="#fed2a4"/><path d="m259.788 80.216h135.822l-16.384 74.553c-3.216 14.635-16.183 25.062-31.167 25.062h-36.622c-5.562 0-11.019 1.522-15.778 4.401l-35.87 21.701v-125.717z" fill="#ffe5c2"/><g fill="#fed2a4"><path d="m267.448 184.232-7.661 4.635v17.066l35.87-21.701c4.759-2.879 10.216-4.401 15.778-4.401h-28.209c-5.562-.001-11.018 1.522-15.778 4.401z"/><path d="m367.4 80.216-16.385 74.553c-3.216 14.635-16.183 25.062-31.167 25.062h28.209c14.985 0 27.951-10.426 31.167-25.062l16.384-74.553z"/></g><path d="m241.634 80.216-28.156-26.932c-3.457-3.306-5.412-7.882-5.412-12.665 0-8.967 6.769-16.488 15.686-17.429l146.82-15.495c14.968-1.58 29.28 6.55 35.587 20.216 4.312 9.342 4.312 20.104 0 29.446l-10.55 22.859z" fill="#fd4755"/><path d="m406.16 27.911c-6.307-13.666-20.619-21.796-35.587-20.216l-25.584 2.7c7.753 3.358 14.235 9.478 17.945 17.516 4.312 9.342 4.312 20.104 0 29.446l-10.55 22.859h43.226l10.55-22.859c4.311-9.342 4.311-20.104 0-29.446z" fill="#ef3349"/><path d="m312.784 80.216s-8.573 71.042-52.996 74.927l-18.153-74.927z" fill="#7a6d79"/><path d="m282.575 80.216s-4.828 40.007-26.012 61.618l3.225 13.309c44.424-3.885 52.996-74.927 52.996-74.927z" fill="#685e68"/><path d="m414.321 399.783 42.133 27.385c6.159 4.004 14.216 3.493 19.82-1.257l15.65-13.262c3.168-2.685 5.188-6.48 5.647-10.607.786-7.08-3.129-13.848-9.66-16.695l-47.365-20.65z" fill="#7a6d79"/><path d="m487.91 385.348-47.365-20.65-6.884 9.211 26.239 11.44c6.53 2.847 10.446 9.614 9.66 16.695-.458 4.127-2.479 7.923-5.647 10.607l-4.319 3.632c-4.089 3.466-9.482 4.663-14.493 3.508l11.354 7.38c6.159 4.003 14.216 3.493 19.82-1.257l15.65-13.262c3.168-2.685 5.188-6.48 5.646-10.607.785-7.083-3.131-13.85-9.661-16.697z" fill="#685e68"/><path d="m198.568 504.497h-96.916l-4.028-20.713h-83.202v-124.622l110.482 28.269 11.324 2.896c20.142 5.151 36.016 20.643 41.647 40.665z" fill="#ffe5c2"/><path d="m177.874 430.993c-5.632-20.022-21.505-35.514-41.647-40.665l-11.324-2.896-110.481-28.27v7.623l80.688 20.646 11.324 2.896c20.142 5.151 36.015 20.643 41.647 40.665l20.694 73.504h29.793z" fill="#fed2a4"/><path d="m124.903 387.431-27.279 96.352h-83.202v-124.621z" fill="#2ed1e2"/><path d="m14.422 359.162v7.623l80.688 20.646-27.279 96.352h29.793l27.279-96.352z" fill="#00bbce"/><path d="m273.625 285.748c-23.469 3.327-46.638 6.584-63.112 8.849l-11.454-65.618c-.331-1.924-.501-3.838-.501-5.722 0-15.943 11.574-30.023 27.868-32.618 18.308-2.926 35.444 9.77 37.97 28.139z" fill="#fd4755"/><path d="m264.396 218.778c-2.525-18.368-19.661-31.065-37.97-28.139-3.123.497-6.07 1.42-8.798 2.693 9.802 4.591 17.169 13.895 18.757 25.446l9.229 66.97c-12.316 1.746-24.539 3.471-35.766 5.045l.664 3.804c16.474-2.265 39.643-5.522 63.112-8.849z" fill="#ef3349"/></g><path d="m505.024 402.87c1.155-10.407-4.518-20.212-14.117-24.397l-47.365-20.65c-.184-.078-.755-.311-1.927-.552l-149.611-21.596c-2.364-.342-4.242-2.229-4.566-4.593l-15.613-113.326c-.427-3.105-1.205-6.1-2.289-8.955l30.005-18.152c3.588-2.171 7.7-3.318 11.895-3.318h36.581c.012 0 .023.002.035.002.013 0 .025-.003.038-.003 18.349-.015 34.521-13.027 38.461-30.951l8.738-39.763c.889-4.046-1.67-8.046-5.716-8.935-4.043-.886-8.046 1.67-8.935 5.715l-8.738 39.763c-2.32 10.557-11.495 18.348-22.162 19.097-27.418-15.132-29.755-65.824-29.652-84.541h75.481c2.37-.076 5.388-1.144 6.851-4.357l10.551-22.858c5.24-11.354 5.24-24.378 0-35.732-7.657-16.59-25.004-26.448-43.183-24.531l-146.82 15.495c-12.77 1.347-22.399 12.046-22.399 24.887 0 6.796 2.816 13.388 7.728 18.085l26.569 25.414 15.39 63.522h-48.387c-36.285 0-72.267 9.239-104.053 26.717l-87 47.81c-3.63 1.995-4.955 6.555-2.961 10.185 1.365 2.484 3.932 3.889 6.58 3.889 1.221 0 2.46-.299 3.605-.929l87.001-47.811c29.58-16.265 63.062-24.862 96.827-24.862h50.42v25.726c-8.123-4.825-17.574-6.645-27.04-5.134-21.931 3.416-37.529 24.549-33.576 47.037l15.522 88.896-193.725 32.562c-6.542 1.135-10.563 11.184-.768 14.737l102.891 26.327-7.286 25.734-92.3-19.877c-4.055-.873-8.039 1.705-8.911 5.753-.872 4.049 1.704 8.039 5.753 8.911l91.364 19.675-3.041 10.74-85.262-17.19c-4.062-.823-8.017 1.809-8.835 5.87s1.81 8.016 5.87 8.834l84.129 16.962-5.119 18.081h-77.53c-.104 0-.204.011-.307.016-.098.004-.197.007-.294.015-.173.014-.343.036-.512.061-.073.011-.147.02-.22.034-.202.036-.4.083-.596.135-.035.009-.071.017-.105.027-3.152.888-5.465 3.777-5.465 7.213 0 1.296.329 2.516.908 3.58 1.27 2.339 3.747 3.927 6.596 3.927h77.018l2.846 14.638c.697 3.583 3.836 6.07 7.354 6.07.475 0 .956-.045 1.439-.139 4.066-.791 6.721-4.728 5.931-8.794l-3.687-18.958 24.801-87.598c18.623 3.358 35.398 17.732 40.526 36.517l20.694 73.504c.932 3.308 3.94 5.469 7.216 5.469.673 0 1.357-.091 2.036-.283 3.987-1.123 6.31-5.265 5.188-9.252l-3.146-11.174h127.963c.295 0 .547.191.627.473l4.21 14.79c.939 3.298 3.943 5.449 7.21 5.449.68 0 1.371-.093 2.058-.289 3.983-1.134 6.294-5.283 5.16-9.267l-4.211-14.792c-1.906-6.691-8.097-11.365-15.054-11.365h-132.187l-13.325-47.328c-6.332-22.518-24.345-40.106-47.008-45.901l-87.443-22.373 159.128-26.746 6.079 34.816c3.893 22.326 23.171 38.53 45.84 38.53h44.64l9.819 32.213h-98.228c-4.143 0-7.5 3.358-7.5 7.5s3.357 7.5 7.5 7.5h108.355 25.796l16.543 52.263c1.012 3.196 3.965 5.239 7.148 5.239.75 0 1.513-.113 2.266-.352 3.948-1.25 6.137-5.465 4.887-9.414l-21.704-68.717h89.204c4.074 0 7.39 3.315 7.39 7.39 0 1.976-.769 3.832-2.162 5.226-1.39 1.389-3.246 2.154-5.228 2.154h-12.91c-11.299 0-20.49 9.196-20.49 20.5 0 5.479 2.129 10.625 6.008 14.505 3.877 3.859 9.02 5.985 14.482 5.985h17.79c25.37 0 46.01-20.636 46.01-46 .358-7.725-.688-16.911-4.531-24.911 4.648-3.939 7.577-9.444 8.249-15.499zm-14.908-1.655c-.248 2.232-1.328 4.261-3.041 5.713l-15.649 13.262c-3.104 2.629-7.476 2.905-10.885.69l-35.417-23.021 17.871-23.912 41.918 18.275c3.538 1.543 5.629 5.157 5.203 8.993zm-186.255-313.499c-1.375 6.585-3.843 16.218-7.944 25.869-7.774 18.294-18.016 29.338-30.503 32.927l-14.245-58.796zm23.279 84.615h-15.705c-6.932 0-13.73 1.896-19.659 5.484l-24.49 14.816v-31.098c19.95-4.612 32.62-20.988 40.545-37.781 2.835 16.846 8.437 35.192 19.309 48.579zm-111.574-131.712c0-5.144 3.857-9.43 8.974-9.97l77.945-8.226c40.976 8.091 48.387 27.765 48.458 27.964l.641 2.415c1.08 4.066 5.326 6.417 9.345 5.175 3.945-1.219 6.151-5.438 4.86-9.36-2.366-7.188-5.449-12.989-12.362-19.311-4.383-4.008-9.522-7.555-15.379-10.636l33.311-3.516c12.761-1.346 24.889 6.259 29.093 18.668 2.317 6.84 1.691 14.339-1.335 20.896l-8.307 17.998h-146.166l-25.983-24.853c-1.967-1.881-3.095-4.522-3.095-7.244zm12.043 157.425c12.241-2.343 27.717 6.999 29.356 21.757l8.207 59.569c-15.014 2.125-33.208 4.687-48.513 6.807l-10.209-58.466c-2.643-12.871 7.174-27.824 21.159-29.667zm3.019 168.135-11.387-65.216c15.196-2.106 33.133-4.632 47.979-6.733l5.359 38.895c1.229 8.949 8.335 16.103 17.282 17.396l137.122 19.793-16.422 21.973h-148.871c-15.361 0-28.425-10.979-31.062-26.108zm101.203 73.321-9.819-32.213h15.28l6.556 20.971c.005.016.013.03.018.045l3.498 11.197zm21.185-32.21h28.26v11.23h-24.751zm43.26 0h15.832l17.278 11.23h-33.11zm90.029 35.99c0 17.093-13.911 31-31.01 31h-17.79c-1.469 0-2.853-.573-3.887-1.603-1.034-1.034-1.604-2.415-1.604-3.887 0-3.033 2.463-5.5 5.49-5.5h12.91c12.906.133 25.032-12.51 21.929-26.909 3.271-.739 8.886-4.465 12.389-7.808 1.249 3.216 1.782 9.851 1.573 14.707z"/></g></svg>